<svg width="25" height="24" viewBox="0 0 25 24" fill="none" xmlns="http://www.w3.org/2000/svg">
<path fill-rule="evenodd" clip-rule="evenodd" d="M13.3584 6.91706C12.9715 7.28838 12.3605 7.28838 11.9736 6.91706L11.2812 6.2526C10.4708 5.47487 9.37595 5 8.16602 5C5.68073 5 3.66602 7.01472 3.66602 9.5C3.66602 11.8826 4.9558 13.8501 6.81777 15.4666C8.68133 17.0844 10.9094 18.1574 12.2407 18.7051C12.519 18.8196 12.813 18.8196 13.0914 18.7051C14.4226 18.1574 16.6507 17.0844 18.5143 15.4666C20.3762 13.85 21.666 11.8826 21.666 9.5C21.666 7.01472 19.6513 5 17.166 5C15.9561 5 14.8612 5.47487 14.0508 6.2526L13.3584 6.91706ZM12.666 4.80957C11.4981 3.6888 9.91251 3 8.16602 3C4.57616 3 1.66602 5.91015 1.66602 9.5C1.66602 15.8683 8.63636 19.385 11.4798 20.5547C12.2456 20.8697 13.0864 20.8697 13.8522 20.5547C16.6957 19.385 23.666 15.8682 23.666 9.5C23.666 5.91015 20.7559 3 17.166 3C15.4195 3 13.8339 3.6888 12.666 4.80957Z" fill="#B1B5C4"/>
</svg>
