<svg width="16" height="16" viewBox="0 0 16 16" fill="none" xmlns="http://www.w3.org/2000/svg">
<path fill-rule="evenodd" clip-rule="evenodd" d="M8 8.66665C5.42267 8.66665 3.33333 10.756 3.33333 13.3333V14.6666C3.33333 15.0348 3.03486 15.3333 2.66667 15.3333C2.29848 15.3333 2 15.0348 2 14.6666V13.3333C2 10.0196 4.68629 7.33331 8 7.33331C11.3137 7.33331 14 10.0196 14 13.3333V14.6666C14 15.0348 13.7015 15.3333 13.3333 15.3333C12.9651 15.3333 12.6667 15.0348 12.6667 14.6666V13.3333C12.6667 10.756 10.5773 8.66665 8 8.66665Z" fill="#777E91"/>
<path fill-rule="evenodd" clip-rule="evenodd" d="M8 7.33335C9.47276 7.33335 10.6667 6.13945 10.6667 4.66669C10.6667 3.19393 9.47276 2.00002 8 2.00002C6.52724 2.00002 5.33333 3.19393 5.33333 4.66669C5.33333 6.13945 6.52724 7.33335 8 7.33335ZM8 8.66669C10.2091 8.66669 12 6.87583 12 4.66669C12 2.45755 10.2091 0.666687 8 0.666687C5.79086 0.666687 4 2.45755 4 4.66669C4 6.87583 5.79086 8.66669 8 8.66669Z" fill="#777E91"/>
</svg>
