<svg width="80" height="80" viewBox="0 0 80 80" fill="none" xmlns="http://www.w3.org/2000/svg">
<rect width="80" height="80" rx="24" fill="#8BC5E5"/>
<path fill-rule="evenodd" clip-rule="evenodd" d="M40 50C45.5228 50 50 45.5228 50 40C50 34.4772 45.5228 30 40 30C34.4772 30 30 34.4772 30 40C30 45.5228 34.4772 50 40 50ZM40 32C39.4477 32 39 32.4477 39 33V34C37.3431 34 36 35.3431 36 37V37.5585C36 38.8498 36.8263 39.9962 38.0513 40.4045L41.3162 41.4928C41.7246 41.6289 42 42.0111 42 42.4415V43C42 43.5523 41.5523 44 41 44H39C38.4477 44 38 43.5523 38 43C38 42.4477 37.5523 42 37 42C36.4477 42 36 42.4477 36 43C36 44.6569 37.3431 46 39 46V47C39 47.5523 39.4477 48 40 48C40.5523 48 41 47.5523 41 47V46C42.6569 46 44 44.6569 44 43V42.4415C44 41.1502 43.1737 40.0038 41.9487 39.5955L38.6838 38.5072C38.2754 38.3711 38 37.9889 38 37.5585V37C38 36.4477 38.4477 36 39 36H41C41.5523 36 42 36.4477 42 37C42 37.5523 42.4477 38 43 38C43.5523 38 44 37.5523 44 37C44 35.3431 42.6569 34 41 34V33C41 32.4477 40.5523 32 40 32Z" fill="#FCFCFD"/>
</svg>
