<svg width="80" height="80" viewBox="0 0 80 80" fill="none" xmlns="http://www.w3.org/2000/svg">
<rect width="80" height="80" rx="24" fill="#6FCF97"/>
<path fill-rule="evenodd" clip-rule="evenodd" d="M46.818 42.1244C46.2016 41.4098 45.1428 41.4466 44.3149 41.8997C43.0338 42.6009 41.5635 42.9996 40 42.9996C38.4365 42.9996 36.9662 42.6009 35.6851 41.8997C34.8572 41.4466 33.7984 41.4098 33.182 42.1244C31.8222 43.701 31 45.7543 31 47.9996V48.9996C31 50.1042 31.8954 50.9996 33 50.9996H47C48.1046 50.9996 49 50.1042 49 48.9996V47.9996C49 45.7543 48.1778 43.701 46.818 42.1244Z" fill="#FCFCFD"/>
<path d="M45 34C45 36.7614 42.7614 39 40 39C37.2386 39 35 36.7614 35 34C35 31.2386 37.2386 29 40 29C42.7614 29 45 31.2386 45 34Z" fill="#FCFCFD"/>
</svg>
