<svg width="80" height="80" viewBox="0 0 80 80" fill="none" xmlns="http://www.w3.org/2000/svg">
<rect width="80" height="80" rx="24" fill="#BB6BD9"/>
<path d="M40.7071 36.707L43.2929 39.2927C43.6834 39.6833 43.6834 40.3164 43.2929 40.707L38.9904 45.0095C38.3333 45.6665 37.588 46.2288 36.7757 46.68L32.0596 49.3001C31.1804 49.7885 30.2113 48.8195 30.6998 47.9403L33.3199 43.2241C33.7711 42.4119 34.3333 41.6665 34.9904 41.0095L39.2929 36.707C39.6834 36.3164 40.3166 36.3164 40.7071 36.707Z" fill="#FCFCFD"/>
<path d="M46.9999 37.0004L47.75 37.7504C48.1642 38.1646 48.1642 38.8362 47.75 39.2504C47.3358 39.6646 46.6642 39.6646 46.25 39.2504L40.75 33.7504C40.3358 33.3362 40.3358 32.6646 40.75 32.2504C41.1642 31.8362 41.8358 31.8362 42.25 32.2504L42.9999 33.0004L45 31.0003C46.1046 29.8957 47.8954 29.8957 49 31.0003C50.1046 32.1049 50.1046 33.8957 49 35.0003L46.9999 37.0004Z" fill="#FCFCFD"/>
</svg>
