<svg width="80" height="80" viewBox="0 0 80 80" fill="none" xmlns="http://www.w3.org/2000/svg">
<rect width="80" height="80" rx="24" fill="#92A5EF"/>
<path fill-rule="evenodd" clip-rule="evenodd" d="M40 50C45.5228 50 50 45.5228 50 40C50 34.4772 45.5228 30 40 30C34.4772 30 30 34.4772 30 40C30 45.5228 34.4772 50 40 50ZM45.7071 37.7071C46.0976 37.3166 46.0976 36.6834 45.7071 36.2929C45.3166 35.9024 44.6834 35.9024 44.2929 36.2929L39 41.5858L36.7071 39.2929C36.3166 38.9024 35.6834 38.9024 35.2929 39.2929C34.9024 39.6834 34.9024 40.3166 35.2929 40.7071L38.2929 43.7071C38.6834 44.0976 39.3166 44.0976 39.7071 43.7071L45.7071 37.7071Z" fill="#FCFCFD"/>
</svg>
