<svg width="45" height="50" viewBox="0 0 45 50" fill="none" xmlns="http://www.w3.org/2000/svg">
<g id="Layer_1" clip-path="url(#clip0_5735_11022)">
<path id="Vector" d="M27.271 2.38283C25.0499 3.59079 23.0344 5.32712 21.9555 7.52726C20.9674 9.54052 20.3526 11.7288 20.1112 14.0886C19.9177 15.9863 19.8252 17.9367 19.8372 19.9381C19.8492 21.9955 19.844 24.0377 19.8235 26.0645C19.8235 26.1359 19.7636 26.1937 19.6933 26.192C19.6814 26.192 19.6711 26.1903 19.6591 26.1869C18.5717 25.8827 17.5185 25.5328 16.5013 25.1369C14.3282 24.2925 12.3709 23.0846 10.6276 21.5096C9.37578 20.3781 8.61716 19.25 7.71469 17.721C6.89442 16.2871 6.40466 14.6867 6.2454 12.9214C6.1906 12.3149 6.38411 11.8222 6.82421 11.4417C8.2661 9.84294 9.24563 8.80997 9.7645 8.34276C11.352 6.91054 13.0148 5.53439 14.7546 4.21261C15.4516 3.68423 16.2462 3.12188 17.1418 2.52725C18.2069 1.81708 19.0255 1.2972 19.5992 0.969305C20.1471 0.654999 20.9041 0.395059 21.8716 0.191185C22.8357 0.0586667 23.7793 0.145313 24.7006 0.449426C25.091 0.576847 25.538 0.789216 26.0397 1.08653C26.5449 1.38385 26.9559 1.65908 27.2761 1.91222C27.4508 2.04984 27.4491 2.20614 27.271 2.38283Z" fill="#2DCBAE"/>
<path id="Vector_2" d="M37.8805 16.3907C37.3993 17.6326 36.7451 18.7607 35.9197 19.7733C35.4231 20.3815 34.9128 21.0085 34.3237 21.5266C32.6935 22.9555 30.8731 24.109 28.8627 24.984C27.6537 25.5107 26.1895 25.9116 24.835 26.3194C24.4976 26.4213 24.1295 26.4553 23.727 26.4213C23.614 26.4128 23.5541 26.3517 23.5472 26.2378C23.5352 26.0425 23.5284 25.8505 23.5267 25.6619C23.4941 23.1729 23.489 20.4971 23.513 17.6343C23.5233 16.4094 23.6054 15.2898 23.7596 14.2789C23.8966 13.3853 24.0473 12.5409 24.2117 11.7475C24.6141 9.81575 25.472 8.17626 26.7855 6.83069C27.8044 5.78754 28.8456 4.8752 30.2344 4.60676C30.8063 4.49803 31.7568 5.25576 32.1609 5.60745C34.209 7.38795 36.1663 9.27209 38.0346 11.2599C38.3737 11.6217 38.6237 11.9615 38.7847 12.2792C38.9131 12.5375 38.8087 12.879 38.771 13.1559C38.6426 14.1158 38.3446 15.1929 37.8805 16.3907Z" fill="#2DCBAE"/>
<path id="Vector_3" d="M43.4004 19.5099C44.2395 21.3974 44.7703 23.392 44.9912 25.4919C45.0203 25.7688 44.9861 26.0356 44.8885 26.2938C44.4107 27.5629 43.7 28.7828 42.7582 29.9517C42.551 30.2082 42.1297 30.6754 41.4944 31.3567C40.4601 32.461 39.4394 33.3292 38.2133 34.0614C36.9958 34.7869 36.0882 35.3747 34.9545 35.9371C34.261 36.2819 33.4835 36.5266 32.7283 36.7933C31.5895 37.196 30.4473 37.4831 29.3171 37.7974C28.3256 38.0726 27.1423 38.3054 25.7654 38.4974C25.1815 38.5789 24.5804 38.5976 23.9639 38.5518C23.7927 38.5382 23.6506 38.4107 23.6214 38.2425C23.5461 37.8127 23.5067 37.3574 23.505 36.8766C23.4947 35.0502 23.493 33.2238 23.5016 31.3975C23.5016 31.1171 23.5204 30.8385 23.5564 30.5599C23.5872 30.3101 23.7225 30.2099 23.9691 30.1453C25.3493 29.7903 26.7227 29.4386 28.0824 28.9883C29.3856 28.5568 30.5415 28.1117 31.5467 27.653C32.2574 27.3302 33.1153 26.8426 34.1188 26.1902C35.059 25.5802 35.8501 24.9805 36.4889 24.3927C38.7579 22.3081 40.7837 19.5116 41.5543 16.4858C41.5749 16.4025 41.6605 16.3515 41.7461 16.3719C41.7872 16.3821 41.8215 16.4076 41.842 16.4433C42.4431 17.4185 42.926 18.4463 43.4004 19.5099Z" fill="#2DCBAE"/>
<path id="Vector_4" d="M4.21202 18.6655C4.92269 20.1877 5.83372 21.5945 6.94853 22.8874C7.21739 23.1983 7.68489 23.6672 8.35275 24.2958C8.87847 24.7919 9.39392 25.2098 9.8991 25.5496C10.5378 25.9812 11.1475 26.377 11.728 26.7372C13.4439 27.8041 15.0605 28.4158 17.1531 29.1089C17.8792 29.3502 18.6823 29.4844 19.4341 29.7528C19.7218 29.8565 19.8022 30.0586 19.8091 30.339C19.8742 33.1507 19.8742 35.8164 19.8091 38.3376C19.8057 38.4345 19.7286 38.5143 19.631 38.5177C19.0727 38.5398 18.5453 38.4837 18.0059 38.3512C17.2507 38.1677 16.4493 37.9877 15.5982 37.8093C14.908 37.6649 13.5655 37.2486 11.567 36.5622C10.1645 36.0797 8.61304 35.2897 6.91086 34.1939C4.31306 32.5204 2.23071 30.3288 0.663807 27.6206C0.35899 27.0957 0.158632 26.6251 0.0644466 26.2088C-0.00918913 25.8843 -0.0177514 25.5156 0.0387597 25.1045C0.263092 23.4922 0.698057 21.941 1.34708 20.4528C1.76321 19.3162 2.24269 18.2101 2.78383 17.133C2.87802 16.9444 2.9722 16.8068 3.06296 16.7185C3.1914 16.5944 3.29072 16.6148 3.36436 16.7762L4.21374 18.6655H4.21202Z" fill="#2DCBAE"/>
<path id="Vector_5" d="M13.3811 48.2358C9.46814 46.6269 5.7795 44.0088 3.37692 40.5531C2.05833 38.6571 1.11647 36.4926 0.476014 34.2857C0.434915 34.1413 0.419503 34.0122 0.428065 33.9017C0.43834 33.7658 0.494851 33.7437 0.595886 33.8355C1.06852 34.2619 1.53603 34.6442 2.01551 35.1199C2.495 35.5973 3.01217 36.0339 3.56529 36.4298C4.64243 37.1994 5.71614 37.8824 6.78643 38.477C8.26599 39.2993 9.86371 39.9789 11.5796 40.5158C12.965 40.9473 14.2476 41.3058 15.4275 41.5912C16.6536 41.8868 17.9825 41.982 19.3045 42.1977C19.6624 42.2572 19.8439 42.4662 19.8474 42.8263C19.861 44.5508 19.8628 46.2769 19.8542 48.0047C19.8525 48.5433 19.8251 49.0717 19.7754 49.5899C19.7686 49.6714 19.7001 49.7343 19.6179 49.7394C19.1333 49.7649 18.6812 49.7343 18.1794 49.6086C17.455 49.4268 16.6896 49.2467 15.8847 49.07C15.2049 48.9205 14.3692 48.6419 13.3811 48.2358Z" fill="#2DCBAE"/>
<path id="Vector_6" d="M34.8599 39.9925C35.437 39.7937 36.1289 39.5049 36.9354 39.126C39.5675 37.8892 41.9872 36.1426 44.0438 34.1226C44.1997 33.9697 44.2528 33.9986 44.1997 34.2092C42.3913 41.5521 36.1973 47.072 29.017 48.9833C27.2532 49.4539 25.6007 49.9126 23.9173 49.8634C23.7187 49.8583 23.5577 49.6986 23.5526 49.5015C23.4823 47.1994 23.4704 44.8956 23.5132 42.5919C23.5149 42.4899 23.5937 42.4033 23.6964 42.3897C25.1606 42.2045 26.6059 42.0261 28.0323 41.8579C29.2842 41.7101 30.5753 41.3975 31.7706 41.0169C32.8598 40.6686 33.889 40.3272 34.8599 39.9925Z" fill="#2DCBAE"/>
</g>
<defs>
<clipPath id="clip0_5735_11022">
<rect width="45" height="49.7368" fill="white" transform="translate(0 0.131592)"/>
</clipPath>
</defs>
</svg>
