<svg width="25" height="24" viewBox="0 0 25 24" fill="none" xmlns="http://www.w3.org/2000/svg">
<path fill-rule="evenodd" clip-rule="evenodd" d="M5.74672 14.5876C6.13119 14.2031 6.40395 13.7214 6.53582 13.1939L7.13275 10.8062C7.26463 10.2787 7.53738 9.79695 7.92186 9.41247L13.8343 3.50004C15.7673 1.56704 18.9013 1.56704 20.8343 3.50004C22.7673 5.43304 22.7673 8.56704 20.8343 10.5L14.9219 16.4125C14.5374 16.7969 14.0556 17.0697 13.5281 17.2016L11.1404 17.7985C10.6129 17.9304 10.1312 18.2031 9.74672 18.5876L7.33429 21C6.22972 22.1046 4.43886 22.1046 3.33429 21C2.22972 19.8955 2.22972 18.1046 3.33429 17L5.74672 14.5876ZM13.0431 15.2613L10.6554 15.8582C9.7762 16.078 8.9733 16.5326 8.3325 17.1734L5.92007 19.5858C5.59655 19.9093 5.07202 19.9093 4.7485 19.5858C4.42498 19.2623 4.42498 18.7378 4.7485 18.4143L7.16093 16.0018C7.80172 15.361 8.25632 14.5581 8.47611 13.679L9.07304 11.2913C9.117 11.1154 9.20791 10.9548 9.33607 10.8267L15.2485 4.91425C16.4004 3.76231 18.2681 3.76231 19.4201 4.91425C20.572 6.0662 20.572 7.93388 19.4201 9.08582L13.5076 14.9983C13.3795 15.1264 13.2189 15.2173 13.0431 15.2613Z" fill="#B1B5C4"/>
<path d="M17.3341 9.00003L15.3341 11C14.7819 11.5523 13.8864 11.5523 13.3341 11C12.7819 10.4477 12.7819 9.55231 13.3341 9.00003L15.3341 7.00003C15.8864 6.44774 16.7819 6.44774 17.3341 7.00003C17.8864 7.55231 17.8864 8.44774 17.3341 9.00003Z" fill="#B1B5C4"/>
<path fill-rule="evenodd" clip-rule="evenodd" d="M9.33391 19C8.94338 19.3906 8.31022 19.3906 7.9197 19L5.33391 16.4143C4.94338 16.0237 4.94338 15.3906 5.33391 15C5.72443 14.6095 6.3576 14.6095 6.74812 15L9.33391 17.5858C9.72443 17.9764 9.72443 18.6095 9.33391 19Z" fill="#777E91"/>
</svg>
