<svg width="11" height="10" viewBox="0 0 11 10" fill="none" xmlns="http://www.w3.org/2000/svg">
<path fill-rule="evenodd" clip-rule="evenodd" d="M5.5 10C8.26142 10 10.5 7.76142 10.5 5C10.5 2.23858 8.26142 0 5.5 0C2.73858 0 0.5 2.23858 0.5 5C0.5 7.76142 2.73858 10 5.5 10ZM5.5 1C5.22386 1 5 1.22386 5 1.5V2C4.17157 2 3.5 2.67157 3.5 3.5V3.77924C3.5 4.42489 3.91315 4.99809 4.52566 5.20227L6.15811 5.74642C6.36228 5.81447 6.5 6.00554 6.5 6.22076V6.5C6.5 6.77614 6.27614 7 6 7H5C4.72386 7 4.5 6.77614 4.5 6.5C4.5 6.22386 4.27614 6 4 6C3.72386 6 3.5 6.22386 3.5 6.5C3.5 7.32843 4.17157 8 5 8V8.5C5 8.77614 5.22386 9 5.5 9C5.77614 9 6 8.77614 6 8.5V8C6.82843 8 7.5 7.32843 7.5 6.5V6.22076C7.5 5.57511 7.08685 5.00191 6.47434 4.79773L4.84189 4.25358C4.63771 4.18553 4.5 3.99446 4.5 3.77924V3.5C4.5 3.22386 4.72386 3 5 3H6C6.27614 3 6.5 3.22386 6.5 3.5C6.5 3.77614 6.72386 4 7 4C7.27614 4 7.5 3.77614 7.5 3.5C7.5 2.67157 6.82843 2 6 2V1.5C6 1.22386 5.77614 1 5.5 1Z" fill="#FFD166"/>
</svg>
